<?xml version="1.0" encoding="utf-8" standalone="yes"?>
<svg xmlns="http://www.w3.org/2000/svg" version="1.1" baseProfile="tiny" width="850.5" height="580.5" viewBox="-0.75 -0.75 31.5 21.5" fill="none" stroke="#000000" stroke-linejoin="round" stroke-linecap="round" stroke-width="0.5">
    <title>14402. frog,toad</title>
    <desc>https://www.xelify.se/blissdictionary</desc>
    <rect x="-0.75" y="-0.75" width="100%" height="100%" stroke="none" fill="#f5eb82"/>
    <path d="M0,12H8M0,16L2,12M2,12L4,16M4,16L6,12M6,12L8,16"></path><path d="M10,16H18M10,12a2.5,2.5 0 0,1 4,0M14,12a2.5,2.5 0 0,0 4,0"></path><path d="M20,16a4,4 0 1,1 8,0M26,14L28,16M28,16L30,14"></path>
</svg>